<mxfile host="app.diagrams.net" modified="2023-03-28T09:24:13.348Z" agent="Mozilla/5.0 (Macintosh; Intel Mac OS X 10_15_7) AppleWebKit/537.36 (KHTML, like Gecko) Chrome/111.0.0.0 Safari/537.36" version="21.1.1" etag="zf9Tgc-_Lw0CkzgaQJAF" type="github">
  <diagram name="第 1 页" id="s9ynJl81i1ZjyKZF4v8y">
    <mxGraphModel>
      <root>
        <mxCell id="0" />
        <mxCell id="1" parent="0" />
      </root>
    </mxGraphModel>
  </diagram>
</mxfile>
